<svg width="500" height="500" viewBox="0 0 500 500" fill="none" xmlns="http://www.w3.org/2000/svg">
<path d="M250 498.5C112.757 498.5 1.5 387.243 1.5 250C1.5 112.757 112.757 1.5 250 1.5C387.243 1.5 498.5 112.757 498.5 250C498.5 387.243 387.243 498.5 250 498.5Z" fill="white"/>
<path d="M250 498.5C112.757 498.5 1.5 387.243 1.5 250C1.5 112.757 112.757 1.5 250 1.5C387.243 1.5 498.5 112.757 498.5 250C498.5 387.243 387.243 498.5 250 498.5Z" stroke="#737373" stroke-width="3"/>
<path d="M115.773 226.955V273.5H110.136V226.955H115.773ZM140.528 274.227C137.256 274.227 134.438 273.455 132.074 271.909C129.71 270.364 127.892 268.235 126.619 265.523C125.347 262.811 124.71 259.712 124.71 256.227C124.71 252.682 125.362 249.553 126.665 246.841C127.983 244.114 129.816 241.985 132.165 240.455C134.528 238.909 137.286 238.136 140.438 238.136C142.892 238.136 145.104 238.591 147.074 239.5C149.044 240.409 150.657 241.682 151.915 243.318C153.172 244.955 153.953 246.864 154.256 249.045H148.892C148.483 247.455 147.574 246.045 146.165 244.818C144.771 243.576 142.892 242.955 140.528 242.955C138.438 242.955 136.604 243.5 135.028 244.591C133.468 245.667 132.248 247.189 131.369 249.159C130.506 251.114 130.074 253.409 130.074 256.045C130.074 258.742 130.498 261.091 131.347 263.091C132.21 265.091 133.422 266.644 134.983 267.75C136.559 268.856 138.407 269.409 140.528 269.409C141.922 269.409 143.188 269.167 144.324 268.682C145.46 268.197 146.422 267.5 147.21 266.591C147.998 265.682 148.559 264.591 148.892 263.318H154.256C153.953 265.379 153.203 267.235 152.006 268.886C150.824 270.523 149.256 271.826 147.301 272.795C145.362 273.75 143.104 274.227 140.528 274.227ZM176.278 274.227C173.127 274.227 170.362 273.477 167.983 271.977C165.619 270.477 163.771 268.379 162.438 265.682C161.119 262.985 160.46 259.833 160.46 256.227C160.46 252.591 161.119 249.417 162.438 246.705C163.771 243.992 165.619 241.886 167.983 240.386C170.362 238.886 173.127 238.136 176.278 238.136C179.43 238.136 182.188 238.886 184.551 240.386C186.93 241.886 188.778 243.992 190.097 246.705C191.43 249.417 192.097 252.591 192.097 256.227C192.097 259.833 191.43 262.985 190.097 265.682C188.778 268.379 186.93 270.477 184.551 271.977C182.188 273.477 179.43 274.227 176.278 274.227ZM176.278 269.409C178.672 269.409 180.642 268.795 182.188 267.568C183.733 266.341 184.877 264.727 185.619 262.727C186.362 260.727 186.733 258.561 186.733 256.227C186.733 253.894 186.362 251.72 185.619 249.705C184.877 247.689 183.733 246.061 182.188 244.818C180.642 243.576 178.672 242.955 176.278 242.955C173.884 242.955 171.915 243.576 170.369 244.818C168.824 246.061 167.68 247.689 166.938 249.705C166.195 251.72 165.824 253.894 165.824 256.227C165.824 258.561 166.195 260.727 166.938 262.727C167.68 264.727 168.824 266.341 170.369 267.568C171.915 268.795 173.884 269.409 176.278 269.409ZM205.648 252.5V273.5H200.284V238.591H205.466V244.045H205.92C206.739 242.273 207.981 240.848 209.648 239.773C211.314 238.682 213.466 238.136 216.102 238.136C218.466 238.136 220.534 238.621 222.307 239.591C224.08 240.545 225.458 242 226.443 243.955C227.428 245.894 227.92 248.348 227.92 251.318V273.5H222.557V251.682C222.557 248.939 221.845 246.803 220.42 245.273C218.996 243.727 217.042 242.955 214.557 242.955C212.845 242.955 211.314 243.326 209.966 244.068C208.633 244.811 207.58 245.894 206.807 247.318C206.034 248.742 205.648 250.47 205.648 252.5ZM256.449 273.5V226.955H262.085V247.682H286.903V226.955H292.54V273.5H286.903V252.682H262.085V273.5H256.449ZM317.733 274.227C314.369 274.227 311.468 273.485 309.028 272C306.604 270.5 304.733 268.409 303.415 265.727C302.112 263.03 301.46 259.894 301.46 256.318C301.46 252.742 302.112 249.591 303.415 246.864C304.733 244.121 306.566 241.985 308.915 240.455C311.278 238.909 314.036 238.136 317.188 238.136C319.006 238.136 320.801 238.439 322.574 239.045C324.347 239.652 325.96 240.636 327.415 242C328.869 243.348 330.028 245.136 330.892 247.364C331.756 249.591 332.188 252.333 332.188 255.591V257.864H305.278V253.227H326.733C326.733 251.258 326.339 249.5 325.551 247.955C324.778 246.409 323.672 245.189 322.233 244.295C320.809 243.402 319.127 242.955 317.188 242.955C315.051 242.955 313.203 243.485 311.642 244.545C310.097 245.591 308.907 246.955 308.074 248.636C307.241 250.318 306.824 252.121 306.824 254.045V257.136C306.824 259.773 307.278 262.008 308.188 263.841C309.112 265.659 310.392 267.045 312.028 268C313.665 268.939 315.566 269.409 317.733 269.409C319.142 269.409 320.415 269.212 321.551 268.818C322.703 268.409 323.695 267.803 324.528 267C325.362 266.182 326.006 265.167 326.46 263.955L331.642 265.409C331.097 267.167 330.18 268.712 328.892 270.045C327.604 271.364 326.013 272.394 324.119 273.136C322.225 273.864 320.097 274.227 317.733 274.227ZM340.347 273.5V238.591H345.528V243.864H345.892C346.528 242.136 347.68 240.735 349.347 239.659C351.013 238.583 352.892 238.045 354.983 238.045C355.377 238.045 355.869 238.053 356.46 238.068C357.051 238.083 357.498 238.106 357.801 238.136V243.591C357.619 243.545 357.203 243.477 356.551 243.386C355.915 243.28 355.241 243.227 354.528 243.227C352.831 243.227 351.316 243.583 349.983 244.295C348.665 244.992 347.619 245.962 346.847 247.205C346.089 248.432 345.71 249.833 345.71 251.409V273.5H340.347ZM377.733 274.227C374.369 274.227 371.468 273.485 369.028 272C366.604 270.5 364.733 268.409 363.415 265.727C362.112 263.03 361.46 259.894 361.46 256.318C361.46 252.742 362.112 249.591 363.415 246.864C364.733 244.121 366.566 241.985 368.915 240.455C371.278 238.909 374.036 238.136 377.188 238.136C379.006 238.136 380.801 238.439 382.574 239.045C384.347 239.652 385.96 240.636 387.415 242C388.869 243.348 390.028 245.136 390.892 247.364C391.756 249.591 392.188 252.333 392.188 255.591V257.864H365.278V253.227H386.733C386.733 251.258 386.339 249.5 385.551 247.955C384.778 246.409 383.672 245.189 382.233 244.295C380.809 243.402 379.127 242.955 377.188 242.955C375.051 242.955 373.203 243.485 371.642 244.545C370.097 245.591 368.907 246.955 368.074 248.636C367.241 250.318 366.824 252.121 366.824 254.045V257.136C366.824 259.773 367.278 262.008 368.188 263.841C369.112 265.659 370.392 267.045 372.028 268C373.665 268.939 375.566 269.409 377.733 269.409C379.142 269.409 380.415 269.212 381.551 268.818C382.703 268.409 383.695 267.803 384.528 267C385.362 266.182 386.006 265.167 386.46 263.955L391.642 265.409C391.097 267.167 390.18 268.712 388.892 270.045C387.604 271.364 386.013 272.394 384.119 273.136C382.225 273.864 380.097 274.227 377.733 274.227Z" fill="#737373"/>
</svg>
